<svg width="15" height="6" viewBox="0 0 15 6" fill="none" xmlns="http://www.w3.org/2000/svg">
<path fill-rule="evenodd" clip-rule="evenodd" d="M11.8539 0.645917C11.8075 0.599354 11.7523 0.562411 11.6915 0.537205C11.6308 0.511998 11.5657 0.499023 11.4999 0.499023C11.4341 0.499023 11.369 0.511998 11.3083 0.537205C11.2475 0.562411 11.1923 0.599354 11.1459 0.645917L7.4999 4.29292L3.8539 0.645917C3.76001 0.552031 3.63267 0.499286 3.4999 0.499286C3.36712 0.499286 3.23979 0.552031 3.1459 0.645917C3.05201 0.739804 2.99927 0.867141 2.99927 0.999917C2.99927 1.13269 3.05201 1.26003 3.1459 1.35392L7.1459 5.35392C7.19234 5.40048 7.24752 5.43742 7.30827 5.46263C7.36901 5.48784 7.43413 5.50081 7.4999 5.50081C7.56567 5.50081 7.63079 5.48784 7.69153 5.46263C7.75228 5.43742 7.80745 5.40048 7.8539 5.35392L11.8539 1.35392C11.9005 1.30747 11.9374 1.2523 11.9626 1.19155C11.9878 1.13081 12.0008 1.06568 12.0008 0.999917C12.0008 0.93415 11.9878 0.869029 11.9626 0.808284C11.9374 0.747538 11.9005 0.692363 11.8539 0.645917Z" fill="#232323"/>
</svg>
