<svg width="14" height="14" viewBox="0 0 14 14" fill="none" xmlns="http://www.w3.org/2000/svg">
<path d="M13 5.05469C13 5.16927 12.9323 5.29427 12.7969 5.42969L9.96094 8.19531L10.6328 12.1016C10.638 12.138 10.6406 12.1901 10.6406 12.2578C10.6406 12.3672 10.6133 12.4596 10.5586 12.5352C10.5039 12.6107 10.4245 12.6484 10.3203 12.6484C10.2214 12.6484 10.1172 12.6172 10.0078 12.5547L6.5 10.7109L2.99219 12.5547C2.8776 12.6172 2.77344 12.6484 2.67969 12.6484C2.57031 12.6484 2.48828 12.6107 2.43359 12.5352C2.37891 12.4596 2.35156 12.3672 2.35156 12.2578C2.35156 12.2266 2.35677 12.1745 2.36719 12.1016L3.03906 8.19531L0.195312 5.42969C0.0651042 5.28906 0 5.16406 0 5.05469C0 4.86198 0.145833 4.74219 0.4375 4.69531L4.35938 4.125L6.11719 0.570312C6.21615 0.356771 6.34375 0.25 6.5 0.25C6.65625 0.25 6.78385 0.356771 6.88281 0.570312L8.64062 4.125L12.5625 4.69531C12.8542 4.74219 13 4.86198 13 5.05469Z" fill="#CCCCCC"/>
</svg>
