<svg width="14" height="15" viewBox="0 0 14 15" fill="none" xmlns="http://www.w3.org/2000/svg">
<g clip-path="url(#clip0_17_279)">
<path d="M13.25 5.25464C13.25 5.36922 13.1823 5.49422 13.0469 5.62964L10.2109 8.39526L10.8828 12.3015C10.888 12.338 10.8906 12.3901 10.8906 12.4578C10.8906 12.5671 10.8633 12.6596 10.8086 12.7351C10.7539 12.8106 10.6745 12.8484 10.5703 12.8484C10.4714 12.8484 10.3672 12.8171 10.2578 12.7546L6.75 10.9109L3.24219 12.7546C3.1276 12.8171 3.02344 12.8484 2.92969 12.8484C2.82031 12.8484 2.73828 12.8106 2.68359 12.7351C2.62891 12.6596 2.60156 12.5671 2.60156 12.4578C2.60156 12.4265 2.60677 12.3744 2.61719 12.3015L3.28906 8.39526L0.445312 5.62964C0.315104 5.48901 0.25 5.36401 0.25 5.25464C0.25 5.06193 0.395833 4.94214 0.6875 4.89526L4.60938 4.32495L6.36719 0.770264C6.46615 0.556722 6.59375 0.449951 6.75 0.449951C6.90625 0.449951 7.03385 0.556722 7.13281 0.770264L8.89062 4.32495L12.8125 4.89526C13.1042 4.94214 13.25 5.06193 13.25 5.25464Z" fill="#FEC42D"/>
</g>
<defs>
<clipPath id="clip0_17_279">
<rect width="13.5" height="14" fill="white" transform="matrix(1 0 0 -1 0.25 14.2)"/>
</clipPath>
</defs>
</svg>
