<svg width="14" height="15" viewBox="0 0 14 15" fill="none" xmlns="http://www.w3.org/2000/svg">
<g clip-path="url(#clip0_17_160)">
<path d="M13 5.55469C13 5.66927 12.9323 5.79427 12.7969 5.92969L9.96094 8.69531L10.6328 12.6016C10.638 12.638 10.6406 12.6901 10.6406 12.7578C10.6406 12.8672 10.6133 12.9596 10.5586 13.0352C10.5039 13.1107 10.4245 13.1484 10.3203 13.1484C10.2214 13.1484 10.1172 13.1172 10.0078 13.0547L6.5 11.2109L2.99219 13.0547C2.8776 13.1172 2.77344 13.1484 2.67969 13.1484C2.57031 13.1484 2.48828 13.1107 2.43359 13.0352C2.37891 12.9596 2.35156 12.8672 2.35156 12.7578C2.35156 12.7266 2.35677 12.6745 2.36719 12.6016L3.03906 8.69531L0.195312 5.92969C0.0651042 5.78906 0 5.66406 0 5.55469C0 5.36198 0.145833 5.24219 0.4375 5.19531L4.35938 4.625L6.11719 1.07031C6.21615 0.856771 6.34375 0.75 6.5 0.75C6.65625 0.75 6.78385 0.856771 6.88281 1.07031L8.64062 4.625L12.5625 5.19531C12.8542 5.24219 13 5.36198 13 5.55469Z" fill="#CCCCCC"/>
</g>
<defs>
<clipPath id="clip0_17_160">
<rect width="13.5" height="14" fill="white" transform="matrix(1 0 0 -1 0 14.5)"/>
</clipPath>
</defs>
</svg>
