<svg width="14" height="15" viewBox="0 0 14 15" fill="none" xmlns="http://www.w3.org/2000/svg">
<g clip-path="url(#clip0_17_162)">
<path d="M13.5 5.55469C13.5 5.66927 13.4323 5.79427 13.2969 5.92969L10.4609 8.69531L11.1328 12.6016C11.138 12.638 11.1406 12.6901 11.1406 12.7578C11.1406 12.8672 11.1133 12.9596 11.0586 13.0352C11.0039 13.1107 10.9245 13.1484 10.8203 13.1484C10.7214 13.1484 10.6172 13.1172 10.5078 13.0547L7 11.2109L3.49219 13.0547C3.3776 13.1172 3.27344 13.1484 3.17969 13.1484C3.07031 13.1484 2.98828 13.1107 2.93359 13.0352C2.87891 12.9596 2.85156 12.8672 2.85156 12.7578C2.85156 12.7266 2.85677 12.6745 2.86719 12.6016L3.53906 8.69531L0.695312 5.92969C0.565104 5.78906 0.5 5.66406 0.5 5.55469C0.5 5.36198 0.645833 5.24219 0.9375 5.19531L4.85938 4.625L6.61719 1.07031C6.71615 0.856771 6.84375 0.75 7 0.75C7.15625 0.75 7.28385 0.856771 7.38281 1.07031L9.14062 4.625L13.0625 5.19531C13.3542 5.24219 13.5 5.36198 13.5 5.55469Z" fill="#CCCCCC"/>
</g>
<defs>
<clipPath id="clip0_17_162">
<rect width="13.5" height="14" fill="white" transform="matrix(1 0 0 -1 0.5 14.5)"/>
</clipPath>
</defs>
</svg>
