<svg width="15" height="15" viewBox="0 0 15 15" fill="none" xmlns="http://www.w3.org/2000/svg">
<g clip-path="url(#clip0_17_281)">
<path d="M13.75 5.25464C13.75 5.36922 13.6823 5.49422 13.5469 5.62964L10.7109 8.39526L11.3828 12.3015C11.388 12.338 11.3906 12.3901 11.3906 12.4578C11.3906 12.5671 11.3633 12.6596 11.3086 12.7351C11.2539 12.8106 11.1745 12.8484 11.0703 12.8484C10.9714 12.8484 10.8672 12.8171 10.7578 12.7546L7.25 10.9109L3.74219 12.7546C3.6276 12.8171 3.52344 12.8484 3.42969 12.8484C3.32031 12.8484 3.23828 12.8106 3.18359 12.7351C3.12891 12.6596 3.10156 12.5671 3.10156 12.4578C3.10156 12.4265 3.10677 12.3744 3.11719 12.3015L3.78906 8.39526L0.945312 5.62964C0.815104 5.48901 0.75 5.36401 0.75 5.25464C0.75 5.06193 0.895833 4.94214 1.1875 4.89526L5.10938 4.32495L6.86719 0.770264C6.96615 0.556722 7.09375 0.449951 7.25 0.449951C7.40625 0.449951 7.53385 0.556722 7.63281 0.770264L9.39062 4.32495L13.3125 4.89526C13.6042 4.94214 13.75 5.06193 13.75 5.25464Z" fill="#FEC42D"/>
</g>
<defs>
<clipPath id="clip0_17_281">
<rect width="13.5" height="14" fill="white" transform="matrix(1 0 0 -1 0.75 14.2)"/>
</clipPath>
</defs>
</svg>
