<svg width="14" height="14" viewBox="0 0 14 14" fill="none" xmlns="http://www.w3.org/2000/svg">
<g clip-path="url(#clip0_17_152)">
<path d="M13.5 5.05469C13.5 5.16927 13.4323 5.29427 13.2969 5.42969L10.4609 8.19531L11.1328 12.1016C11.138 12.138 11.1406 12.1901 11.1406 12.2578C11.1406 12.3672 11.1133 12.4596 11.0586 12.5352C11.0039 12.6107 10.9245 12.6484 10.8203 12.6484C10.7214 12.6484 10.6172 12.6172 10.5078 12.5547L7 10.7109L3.49219 12.5547C3.3776 12.6172 3.27344 12.6484 3.17969 12.6484C3.07031 12.6484 2.98828 12.6107 2.93359 12.5352C2.87891 12.4596 2.85156 12.3672 2.85156 12.2578C2.85156 12.2266 2.85677 12.1745 2.86719 12.1016L3.53906 8.19531L0.695312 5.42969C0.565104 5.28906 0.5 5.16406 0.5 5.05469C0.5 4.86198 0.645833 4.74219 0.9375 4.69531L4.85938 4.125L6.61719 0.570312C6.71615 0.356771 6.84375 0.25 7 0.25C7.15625 0.25 7.28385 0.356771 7.38281 0.570312L9.14062 4.125L13.0625 4.69531C13.3542 4.74219 13.5 4.86198 13.5 5.05469Z" fill="#CCCCCC"/>
</g>
<defs>
<clipPath id="clip0_17_152">
<rect width="13.5" height="14" fill="white" transform="matrix(1 0 0 -1 0.5 14)"/>
</clipPath>
</defs>
</svg>
