<svg width="35" height="36" viewBox="0 0 35 36" fill="none" xmlns="http://www.w3.org/2000/svg">
<rect x="0.5" y="1" width="34" height="34" fill="white"/>
<g clip-path="url(#clip0_17_423)">
<path fill-rule="evenodd" clip-rule="evenodd" d="M16.1459 13.6461C16.0994 13.6925 16.0624 13.7477 16.0372 13.8085C16.012 13.8692 15.999 13.9343 15.999 14.0001C15.999 14.0659 16.012 14.131 16.0372 14.1917C16.0624 14.2525 16.0994 14.3077 16.1459 14.3541L19.7929 18.0001L16.1459 21.6461C16.052 21.74 15.9993 21.8673 15.9993 22.0001C15.9993 22.1329 16.052 22.2602 16.1459 22.3541C16.2398 22.448 16.3671 22.5007 16.4999 22.5007C16.6327 22.5007 16.76 22.448 16.8539 22.3541L20.8539 18.3541C20.9005 18.3077 20.9374 18.2525 20.9626 18.1917C20.9878 18.131 21.0008 18.0659 21.0008 18.0001C21.0008 17.9343 20.9878 17.8692 20.9626 17.8085C20.9374 17.7477 20.9005 17.6925 20.8539 17.6461L16.8539 13.6461C16.8075 13.5995 16.7523 13.5626 16.6916 13.5374C16.6308 13.5122 16.5657 13.4992 16.4999 13.4992C16.4341 13.4992 16.369 13.5122 16.3083 13.5374C16.2475 13.5626 16.1924 13.5995 16.1459 13.6461Z" fill="#232323" fill-opacity="0.75"/>
</g>
<rect x="0.5" y="1" width="34" height="34" stroke="#E9E9E9"/>
<defs>
<clipPath id="clip0_17_423">
<rect width="15" height="6" fill="white" transform="matrix(0 -1 1 0 15.5 25.5)"/>
</clipPath>
</defs>
</svg>
