<svg width="13" height="13" viewBox="0 0 13 13" fill="none" xmlns="http://www.w3.org/2000/svg">
<path fill-rule="evenodd" clip-rule="evenodd" d="M12.1602 3.43974C12.0998 3.37921 12.0281 3.33118 11.9491 3.29841C11.8701 3.26565 11.7855 3.24878 11.7 3.24878C11.6145 3.24878 11.5298 3.26565 11.4509 3.29841C11.3719 3.33118 11.3002 3.37921 11.2398 3.43974L6.49999 8.18084L1.76019 3.43974C1.63814 3.31769 1.4726 3.24912 1.29999 3.24912C1.12738 3.24912 0.961844 3.31769 0.839791 3.43974C0.717738 3.56179 0.64917 3.72733 0.64917 3.89994C0.64917 4.07255 0.717738 4.23809 0.839791 4.36014L6.03979 9.56014C6.10017 9.62067 6.1719 9.6687 6.25087 9.70147C6.32984 9.73424 6.41449 9.7511 6.49999 9.7511C6.58549 9.7511 6.67015 9.73424 6.74911 9.70147C6.82808 9.6687 6.89981 9.62067 6.96019 9.56014L12.1602 4.36014C12.2207 4.29976 12.2687 4.22803 12.3015 4.14906C12.3343 4.0701 12.3512 3.98544 12.3512 3.89994C12.3512 3.81444 12.3343 3.72979 12.3015 3.65082C12.2687 3.57185 12.2207 3.50012 12.1602 3.43974Z" fill="#232323"/>
</svg>
