<svg width="13" height="14" viewBox="0 0 13 14" fill="none" xmlns="http://www.w3.org/2000/svg">
<path fill-rule="evenodd" clip-rule="evenodd" d="M12.1602 3.93974C12.0998 3.87921 12.0281 3.83118 11.9491 3.79841C11.8701 3.76565 11.7855 3.74878 11.7 3.74878C11.6145 3.74878 11.5298 3.76565 11.4509 3.79841C11.3719 3.83118 11.3002 3.87921 11.2398 3.93974L6.49999 8.68084L1.76019 3.93974C1.63814 3.81769 1.4726 3.74912 1.29999 3.74912C1.12738 3.74912 0.961844 3.81769 0.839791 3.93974C0.717738 4.06179 0.64917 4.22733 0.64917 4.39994C0.64917 4.57255 0.717738 4.73809 0.839791 4.86014L6.03979 10.0601C6.10017 10.1207 6.1719 10.1687 6.25087 10.2015C6.32984 10.2342 6.41449 10.2511 6.49999 10.2511C6.58549 10.2511 6.67015 10.2342 6.74911 10.2015C6.82808 10.1687 6.89981 10.1207 6.96019 10.0601L12.1602 4.86014C12.2207 4.79976 12.2687 4.72803 12.3015 4.64906C12.3343 4.5701 12.3512 4.48544 12.3512 4.39994C12.3512 4.31444 12.3343 4.22979 12.3015 4.15082C12.2687 4.07185 12.2207 4.00012 12.1602 3.93974Z" fill="#232323"/>
</svg>
